# xmcd CD database file
#
# Track frame offsets:
#	150
#	10780
#	23764
#	34905
#	50552
#	61706
#	79834
#	91798
#	108815
#
# Disc length: 1595 seconds
#
# Revision: 0
# Processed by: cddbd v1.5.2PL0 Copyright (c) Steve Scherf et al.
# Submitted via: CDex 1.70beta2
#
DISCID=5d063909
DTITLE=Brittany Stone - A Little Bit Of Britt
DYEAR=2005
DGENRE=Country
TTITLE0=Blueberry Hill
TTITLE1=UP
TTITLE2=Trouble is a Woman
TTITLE3=Why haven't I heard from you
TTITLE4=Some days you gotta dance
TTITLE5=I hope you dance
TTITLE6=I shall not be moved
TTITLE7=I want to know how it feels
TTITLE8=God Bless America
EXTD=YEAR: 2005
EXTT0=
EXTT1=
EXTT2=
EXTT3=
EXTT4=
EXTT5=
EXTT6=
EXTT7=
EXTT8=
PLAYORDER=
